<svg xmlns="http://www.w3.org/2000/svg" version="1.1" xmlns:xlink="http://www.w3.org/1999/xlink" xmlns:svgjs="http://svgjs.dev/svgjs" width="1000" height="1000" viewBox="0 0 1000 1000"><rect width="1000" height="1000" fill="#000000"></rect><g transform="matrix(0.7,0,0,0.7,150,150)"><svg viewBox="0 0 280 280" data-background-color="#4b91f1" preserveAspectRatio="xMidYMid meet" height="1000" width="1000" xmlns="http://www.w3.org/2000/svg" xmlns:xlink="http://www.w3.org/1999/xlink"><g id="tight-bounds" transform="matrix(1,0,0,1,0,0)"><svg viewBox="0 0 280 280" height="280" width="280"><g><svg viewBox="0 0 280 280" height="280" width="280"><g><svg viewBox="0 0 280 280" height="280" width="280"><g id="textblocktransform"><svg viewBox="0 0 280 280" height="280" width="280" id="textblock"><g><svg viewBox="0 0 280 280" height="280" width="280"><g transform="matrix(1,0,0,1,100.57324186681852,90.50252531694167)"><svg viewBox="0 0 78.85351626636296 98.99494936611666" height="98.99494936611666" width="78.85351626636296"><g><svg xmlns="http://www.w3.org/2000/svg" xmlns:xlink="http://www.w3.org/1999/xlink" version="1.0" x="0" y="0" viewBox="15.68505859375 3.6717529296875 71.95013427734375 90.3282470703125" enable-background="new 0 0 100 100" xml:space="preserve" height="98.99494936611666" width="78.85351626636296" class="icon-o-0" data-fill-palette-color="accent" id="o-0"><g fill="#0718c4" data-fill-palette-color="accent"><polygon points="81.2773438,56.8994141 60.3235474,48.8267822 60.2514038,41.4863281 64.0084229,32.3755493 66.7858276,31.4420776    67.6157227,23.4489746 65.3502197,22.3515015 65.9616089,14.3040771 57.7007446,3.6717529 45.6195679,3.6717529    42.0075684,8.3206787 37.3587036,14.3040771 37.9700317,22.3515015 35.7045898,23.4489746 36.5344849,31.4420776    39.3118286,32.3755493 43.0689087,41.4863892 42.9967651,48.8267822 22.0429688,56.8994141 15.6850586,75.3734131    15.6850586,79.1824341 23.8092651,79.1824341 23.8092651,75.3734131 23.8092651,58.9157104 24.824646,58.9157104    51.6471558,58.9157104 77.5939941,58.9157104 79.578125,58.9157104 79.578125,75.3734131 79.578125,79.1824341    87.6351929,79.1824341 87.6351929,75.3734131  " fill="#ffffff" data-fill-palette-color="accent"></polygon><polygon points="74.4656372,66.3009033 74.4656372,63.932251 28.8546753,63.932251 28.8546753,66.3009033 28.8546753,90.2185669    25.4189453,90.2185669 25.4189453,94 28.8546753,94 74.4656372,94 77.9013672,94 77.9013672,90.2185669 74.4656372,90.2185669  " fill="#ffffff" data-fill-palette-color="accent"></polygon></g></svg></g></svg></g><g><path d="M10.992 81.429l17.267 6.254 7.885 2.694-1.092 3.101-7.533-2.824-3.783-1.291-2.501 6.979-2.217 6.412 3.483 1.269 7.899 2.657-1.093 3.1-7.546-2.786-17.633-6.087 1.105-3.138 11.118 4.045 2.389-6.659 2.33-6.732-11.198-3.818z" fill="#ffffff" data-fill-palette-color="primary"></path><path d="M24.461 59.867l27.091 7.633-1.921 2.827-2.56-0.979-4.627-1.333-3.477 4.886-2.937 4.552 2.743 3.821 1.963 2.143-1.876 2.76-16.578-23.104zM36.964 71.19l2.622-4.017-13.321-3.81-0.163 0.24 8.166 11.395z" fill="#ffffff" data-fill-palette-color="primary"></path><path d="M53.8 45.578c3.207-2.129 6.063-1.931 8.567 0.596v0c1.777 1.793 2.466 3.788 2.065 5.986-0.401 2.198-1.892 4.577-4.475 7.137v0c-1.736 1.721-3.167 3.059-4.292 4.015v0l-0.028 0.029-5.514-5.86-13.281-13.1 5.237-5.248c1.774-1.759 3.53-2.716 5.269-2.874 1.734-0.162 3.344 0.507 4.83 2.007v0c1.055 1.064 1.719 2.226 1.992 3.484 0.268 1.254 0.144 2.53-0.37 3.828zM50.019 40.941c-1.018-1.027-2.035-1.495-3.053-1.405-1.022 0.094-2.165 0.768-3.428 2.02v0l-2.399 2.377 6.246 6.414 3.348-3.136c1.418-2.269 1.18-4.359-0.714-6.27zM58.342 56.959c1.613-1.599 2.552-3.135 2.818-4.609 0.261-1.468-0.176-2.775-1.311-3.919v0c-1.913-1.93-4.219-1.834-6.918 0.287v0l-3.612 3.637 2.729 2.81 4.017 3.882c0.827-0.708 1.586-1.404 2.277-2.088z" fill="#ffffff" data-fill-palette-color="primary"></path><path d="M60.436 23.982l10.692 14.932 5.054 6.628-2.716 1.99-4.584-6.612-11.194-14.924z" fill="#ffffff" data-fill-palette-color="primary"></path><path d="M87.907 23.618c3.709-1.031 6.363 0.042 7.962 3.219v0c1.135 2.255 1.171 4.366 0.11 6.332-1.061 1.966-3.217 3.766-6.465 5.4v0c-2.184 1.099-3.959 1.928-5.325 2.489v0l-0.036 0.018-3.427-7.279-8.572-16.569 6.605-3.368c2.231-1.123 4.198-1.49 5.899-1.101 1.699 0.383 3.023 1.518 3.972 3.404v0c0.674 1.339 0.945 2.649 0.815 3.93-0.134 1.275-0.646 2.45-1.538 3.525zM85.749 18.038c-0.65-1.291-1.472-2.052-2.468-2.282-1.001-0.227-2.297 0.059-3.885 0.859v0l-3.017 1.518 3.952 8.033 4.155-1.945c2.051-1.718 2.472-3.779 1.263-6.183zM88.702 35.846c2.029-1.021 3.398-2.191 4.107-3.509 0.703-1.315 0.692-2.693-0.033-4.134v0c-1.222-2.428-3.444-3.051-6.667-1.868v0l-4.561 2.339 1.725 3.517 2.618 4.935c1.006-0.417 1.943-0.843 2.811-1.28z" fill="#ffffff" data-fill-palette-color="primary"></path><path d="M133.714 0l6.365 26.06-2.968 0.423-1.768-7.954-3.278-12.955-0.287 0.04-4.755 19.197-2.72 0.387-9.548-17.159-0.337 0.047 0.434 13.109 0.488 8.388-2.809 0.4-1.004-26.824 3.759-0.535 1.931 3.853 7.88 14.228 0.247-0.035 3.836-16.149 0.824-3.993z" fill="#ffffff" data-fill-palette-color="primary"></path><path d="M160.326 1.704l5.574 27.587-3.391-0.418-0.298-2.725-0.927-4.725-5.934-0.864-5.39-0.534-2.148 4.184-1.01 2.725-3.312-0.409 12.988-25.296zM155.959 17.997l4.77 0.498-2.691-13.591-0.287-0.035-6.412 12.467z" fill="#ffffff" data-fill-palette-color="primary"></path><path d="M183.062 6.792l-5.994 17.36-2.537 7.938-3.116-1.046 2.672-7.587 5.821-17.723zM197.081 11.497l-14.257 8.442c1.985 5.704 4.219 11.182 6.7 16.434v0l-0.171 0.385c-0.868-0.031-1.927-0.151-3.178-0.36v0l-0.322-0.33c-2.581-6.107-4.712-11.804-6.395-17.09v0l0.08-0.237 11.669-6.76 2.322-1.676z" fill="#ffffff" data-fill-palette-color="primary"></path><path d="M213.074 19.992c1.667 0.95 3.185 2.295 4.555 4.034v0l-2.058 2.519-0.587-0.139c-0.397-0.932-0.906-1.766-1.528-2.504-0.616-0.735-1.312-1.323-2.088-1.765v0c-0.891-0.508-1.773-0.769-2.646-0.785-0.864-0.017-1.638 0.163-2.321 0.54-0.677 0.381-1.195 0.886-1.555 1.518v0c-0.369 0.648-0.496 1.335-0.381 2.06 0.113 0.716 0.369 1.43 0.769 2.14 0.397 0.702 0.969 1.603 1.715 2.703v0c0.959 1.344 1.689 2.504 2.19 3.48 0.499 0.967 0.805 2.011 0.917 3.133 0.115 1.116-0.151 2.241-0.797 3.376v0c-0.689 1.209-1.647 2.136-2.873 2.778-1.231 0.64-2.609 0.924-4.132 0.853-1.524-0.071-3.046-0.541-4.568-1.408v0c-1.013-0.577-1.99-1.318-2.931-2.223-0.935-0.901-1.724-1.884-2.367-2.948v0l2.057-2.761 0.503 0.046c0.376 1.303 0.965 2.444 1.764 3.421 0.797 0.983 1.664 1.742 2.601 2.276v0c0.92 0.525 1.838 0.81 2.755 0.858 0.92 0.041 1.736-0.134 2.45-0.525 0.719-0.387 1.272-0.92 1.657-1.596v0c0.577-1.013 0.656-2.045 0.236-3.097-0.422-1.061-1.212-2.401-2.367-4.018v0c-0.923-1.354-1.627-2.499-2.113-3.436-0.489-0.931-0.789-1.945-0.899-3.043-0.107-1.104 0.163-2.223 0.81-3.357v0c0.673-1.18 1.61-2.084 2.811-2.71 1.206-0.623 2.544-0.892 4.013-0.806 1.469 0.086 2.938 0.548 4.408 1.386z" fill="#ffffff" data-fill-palette-color="primary"></path><path d="M235.769 37.218c2.737 2.435 4.088 5.145 4.054 8.129-0.029 2.979-1.448 6.045-4.255 9.2v0c-3.029 3.404-6.137 5.328-9.324 5.773-3.191 0.45-6.228-0.607-9.109-3.171v0c-2.697-2.4-4.002-5.122-3.915-8.165 0.087-3.043 1.561-6.172 4.422-9.387v0c2.954-3.319 5.999-5.183 9.136-5.592 3.133-0.404 6.13 0.667 8.991 3.213zM233.812 39.101c-4.15-3.693-8.605-2.865-13.365 2.484v0c-2.528 2.841-3.901 5.396-4.119 7.664-0.208 2.267 0.704 4.304 2.734 6.111v0c4.15 3.693 8.654 2.81 13.511-2.649v0c2.471-2.777 3.804-5.286 3.999-7.529 0.19-2.247-0.73-4.274-2.76-6.081z" fill="#ffffff" data-fill-palette-color="primary"></path><path d="M262.812 69.864l-11.054 7.886-2.458 1.716c-2.631 1.954-5.209 2.743-7.735 2.366-2.525-0.377-4.741-1.893-6.648-4.55v0c-1.829-2.549-2.527-5.016-2.092-7.403 0.444-2.385 1.978-4.486 4.601-6.304v0l2.976-2.074 10.798-7.813 1.923 2.678-13.509 9.538c-2.045 1.435-3.249 2.984-3.613 4.647-0.358 1.659 0.119 3.404 1.432 5.233v0c1.309 1.824 2.788 2.861 4.436 3.112 1.648 0.252 3.423-0.321 5.322-1.717v0l13.681-10.017z" fill="#ffffff" data-fill-palette-color="primary"></path><path d="M272.595 91.274c1.43 3.525 1.522 6.632 0.277 9.322-1.251 2.693-3.753 4.8-7.506 6.323v0c-4.352 1.765-8.097 2.102-11.235 1.009-3.138-1.092-5.48-3.542-7.024-7.35v0c-0.428-1.056-0.929-2.344-1.503-3.865-0.574-1.521-1.081-2.94-1.522-4.256v0l-0.015-0.038 7.532-2.828 17.208-7.206 0.015 0.037zM249.893 100.03c1.064 2.623 2.735 4.289 5.013 4.996 2.287 0.711 5.128 0.379 8.522-0.998v0c6.481-2.629 8.641-6.607 6.481-11.934v0c-0.658-1.623-1.465-3.471-2.42-5.541v0l-14.495 5.707-5.093 2.195c0.249 0.826 0.583 1.809 1.001 2.947 0.41 1.135 0.74 2.011 0.991 2.628z" fill="#ffffff" data-fill-palette-color="primary"></path><path d="M41.788 193.245l-17.373 5.952-7.833 2.845-1.092-3.1 7.639-2.523 3.756-1.365-2.426-7.006-2.293-6.385-3.509 1.194-7.819 2.883-1.093-3.101 7.626-2.56 17.553-6.313 1.106 3.138-11.197 3.819 2.313 6.685 2.406 6.706 11.117-4.045z" fill="#ffffff" data-fill-palette-color="primary"></path><path d="M51.469 207.307l-17.072 22.376-1.921-2.826 1.853-2.02 2.942-3.812-3.262-5.031-3.151-4.406-4.562 1.143-2.715 1.036-1.876-2.76 27.585-6.907zM36.337 214.762l2.77 3.917 8.447-10.983-0.163-0.239-13.602 3.396z" fill="#ffffff" data-fill-palette-color="primary"></path><path d="M58.781 234.923c2.157 3.189 1.983 6.046-0.521 8.573v0c-1.777 1.793-3.767 2.499-5.968 2.117-2.201-0.381-4.593-1.852-7.176-4.413v0c-1.736-1.721-3.087-3.14-4.053-4.256v0l-0.028-0.029 5.811-5.564 12.984-13.395 5.293 5.191c1.774 1.759 2.747 3.506 2.92 5.243 0.177 1.733-0.478 3.349-1.964 4.848v0c-1.055 1.064-2.211 1.738-3.468 2.022-1.252 0.279-2.529 0.166-3.83-0.337zM63.385 231.102c1.018-1.027 1.477-2.048 1.378-3.065-0.103-1.022-0.787-2.158-2.05-3.41v0l-2.398-2.378-6.359 6.302 3.165 3.32c2.281 1.398 4.369 1.142 6.264-0.769zM47.44 239.565c1.613 1.599 3.157 2.525 4.633 2.778 1.471 0.248 2.773-0.201 3.908-1.346v0c1.913-1.93 1.797-4.235-0.348-6.915v0l-3.668-3.58-2.786 2.753-3.847 4.051c0.715 0.821 1.418 1.574 2.108 2.259z" fill="#ffffff" data-fill-palette-color="primary"></path><path d="M79.734 235.203l-11.014 14.696-4.796 6.816-2.716-1.989 4.923-6.365 10.855-15.171z" fill="#ffffff" data-fill-palette-color="primary"></path><path d="M91.087 255.588c3.038 2.364 3.758 5.135 2.16 8.312v0c-1.135 2.255-2.808 3.542-5.019 3.862-2.211 0.319-4.941-0.339-8.19-1.974v0c-2.184-1.099-3.908-2.03-5.171-2.792v0l-0.036-0.018 3.802-7.091 8.197-16.757 6.641 3.296c2.231 1.123 3.698 2.483 4.4 4.082 0.705 1.592 0.583 3.332-0.366 5.218v0c-0.674 1.339-1.564 2.337-2.671 2.996-1.104 0.653-2.353 0.941-3.747 0.866zM94.282 250.529c0.65-1.291 0.77-2.405 0.361-3.341-0.415-0.939-1.416-1.809-3.005-2.608v0l-3.017-1.518-4.095 7.961 4.038 2.177c2.602 0.623 4.508-0.267 5.718-2.671zM81.742 263.514c2.029 1.021 3.784 1.423 5.265 1.206 1.475-0.22 2.575-1.05 3.3-2.49v0c1.222-2.428 0.397-4.583-2.473-6.467v0l-4.597-2.268-1.796 3.481-2.403 5.043c0.934 0.559 1.835 1.058 2.704 1.495z" fill="#ffffff" data-fill-palette-color="primary"></path><path d="M138.317 253.199l-1.162 26.801-2.968-0.423 0.522-8.13 0.469-13.356-0.287-0.041-9.924 17.106-2.72-0.387-4.379-19.143-0.336-0.048-3.243 12.709-1.873 8.19-2.809-0.4 6.523-26.037 3.759 0.535 0.779 4.239 3.595 15.862 0.247 0.035 8.192-14.436 1.906-3.604z" fill="#ffffff" data-fill-palette-color="primary"></path><path d="M156.325 251.415l12.116 25.404-3.391 0.419-0.952-2.57-2.048-4.358-5.965 0.605-5.359 0.793-1.065 4.581-0.318 2.888-3.312 0.409 6.447-27.696zM156.052 268.282l4.748-0.677-5.916-12.528-0.287 0.035-3.187 13.652z" fill="#ffffff" data-fill-palette-color="primary"></path><path d="M172.674 247.777l5.691 17.461 2.765 7.862-3.117 1.046-2.445-7.664-6.048-17.646zM186.693 243.073l-6.279 15.333c5.024 3.352 10.11 6.373 15.257 9.066v0l0.096 0.41c-0.711 0.499-1.628 1.042-2.752 1.63v0l-0.455-0.069c-5.742-3.314-10.879-6.572-15.41-9.773v0l-0.08-0.237 5.23-12.43 0.841-2.738z" fill="#ffffff" data-fill-palette-color="primary"></path><path d="M196.694 236.802c1.667-0.95 3.597-1.572 5.792-1.864v0l1.12 3.054-0.42 0.434c-1.004-0.133-1.982-0.12-2.933 0.039-0.946 0.156-1.807 0.455-2.583 0.898v0c-0.891 0.508-1.566 1.134-2.023 1.878-0.455 0.735-0.694 1.492-0.717 2.272-0.017 0.777 0.154 1.48 0.513 2.111v0c0.369 0.648 0.896 1.107 1.579 1.377 0.674 0.268 1.419 0.41 2.234 0.428 0.806 0.016 1.873-0.017 3.199-0.098v0c1.645-0.14 3.015-0.178 4.111-0.112 1.086 0.063 2.141 0.332 3.163 0.807 1.019 0.469 1.852 1.271 2.498 2.405v0c0.689 1.209 0.999 2.505 0.928 3.888-0.077 1.385-0.534 2.716-1.371 3.99-0.837 1.275-2.017 2.346-3.538 3.214v0c-1.013 0.577-2.148 1.041-3.406 1.389-1.252 0.346-2.5 0.524-3.743 0.536v0l-1.328-3.177 0.295-0.41c1.313 0.34 2.594 0.415 3.843 0.225 1.252-0.185 2.346-0.544 3.284-1.079v0c0.92-0.525 1.634-1.169 2.141-1.933 0.504-0.77 0.769-1.562 0.797-2.375 0.033-0.816-0.143-1.563-0.53-2.24v0c-0.577-1.013-1.426-1.606-2.545-1.781-1.128-0.177-2.683-0.18-4.663-0.01v0c-1.635 0.104-2.979 0.127-4.033 0.068-1.05-0.053-2.075-0.312-3.076-0.776-1.004-0.47-1.83-1.272-2.476-2.407v0c-0.673-1.18-0.973-2.447-0.901-3.799 0.078-1.356 0.529-2.644 1.351-3.864 0.822-1.22 1.969-2.249 3.438-3.087z" fill="#ffffff" data-fill-palette-color="primary"></path><path d="M213.729 223.542c2.737-2.435 5.585-3.463 8.545-3.083 2.955 0.375 5.837 2.14 8.644 5.295v0c3.029 3.404 4.579 6.714 4.651 9.931 0.077 3.222-1.326 6.115-4.207 8.679v0c-2.697 2.4-5.552 3.38-8.564 2.94-3.013-0.44-5.949-2.267-8.81-5.481v0c-2.954-3.319-4.451-6.56-4.494-9.724-0.038-3.159 1.374-6.011 4.235-8.557zM215.372 225.705c-4.15 3.693-3.845 8.214 0.916 13.563v0c2.528 2.841 4.906 4.501 7.133 4.98 2.228 0.469 4.357-0.199 6.388-2.006v0c4.15-3.693 3.796-8.269-1.062-13.727v0c-2.471-2.777-4.809-4.392-7.014-4.846-2.21-0.45-4.33 0.229-6.361 2.036z" fill="#ffffff" data-fill-palette-color="primary"></path><path d="M236.286 196.62l11.007 7.951 2.412 1.78c2.693 1.868 4.266 4.058 4.716 6.571 0.451 2.513-0.277 5.098-2.184 7.755v0c-1.829 2.549-3.944 3.999-6.345 4.35-2.402 0.342-4.883-0.439-7.444-2.343v0l-2.917-2.155-10.857-7.732 1.923-2.679 13.357 9.748c2.014 1.478 3.867 2.124 5.559 1.937 1.687-0.191 3.187-1.201 4.5-3.03v0c1.309-1.824 1.819-3.556 1.53-5.199-0.289-1.642-1.399-3.14-3.33-4.493v0l-13.867-9.758z" fill="#ffffff" data-fill-palette-color="primary"></path><path d="M242.022 181.851c1.43-3.525 3.528-5.818 6.295-6.881 2.773-1.06 6.036-0.829 9.789 0.693v0c4.352 1.765 7.273 4.132 8.764 7.102 1.491 2.97 1.464 6.359-0.08 10.167v0c-0.428 1.056-0.966 2.329-1.614 3.82-0.648 1.491-1.272 2.862-1.874 4.113v0l-0.015 0.037-7.374-3.217-17.365-6.817 0.015-0.037zM264.409 191.384c1.064-2.623 1.025-4.982-0.116-7.077-1.145-2.103-3.415-3.844-6.81-5.22v0c-6.481-2.629-10.802-1.28-12.962 4.047v0c-0.658 1.623-1.366 3.511-2.124 5.661v0l14.374 6.003 5.184 1.973c0.397-0.766 0.842-1.704 1.334-2.811 0.496-1.1 0.87-1.958 1.12-2.576z" fill="#ffffff" data-fill-palette-color="primary"></path><path d="M3.813 142.763c0-5.685 4.608-10.293 10.293-10.293 5.685 0 10.293 4.608 10.293 10.293 0 5.685-4.608 10.293-10.293 10.293-5.685 0-10.293-4.608-10.293-10.293z" fill="#ffffff" data-fill-palette-color="primary"></path><path d="M255.601 142.763c0-5.685 4.608-10.293 10.293-10.293 5.685 0 10.293 4.608 10.293 10.293 0 5.685-4.608 10.293-10.293 10.293-5.685 0-10.293-4.608-10.293-10.293z" fill="#ffffff" data-fill-palette-color="primary"></path></g></svg></g></svg></g></svg></g></svg></g><defs></defs></svg><rect width="280" height="280" fill="none" stroke="none" visibility="hidden"></rect></g></svg></g></svg>